<svg xmlns="http://www.w3.org/2000/svg" xmlns:xlink="http://www.w3.org/1999/xlink" width="1994" zoomAndPan="magnify" viewBox="0 0 1495.5 496.499985" height="662" preserveAspectRatio="xMidYMid meet" version="1.0"><defs><g/></defs><path stroke-linecap="butt" transform="matrix(0.000000000000000046, -0.748821, 0.749496, 0.000000000000000046, 548.385385, 420.710797)" fill="none" stroke-linejoin="miter" d="M -0.000187366 4.499594 L 416.388819 4.499594 " stroke="#000000" stroke-width="9" stroke-opacity="1" stroke-miterlimit="4"/><g fill="#000000" fill-opacity="1"><g transform="translate(89.813388, 364.115216)"><g><path d="M 199.796875 -198.359375 C 193.453125 -197.398438 188.789062 -195.765625 185.8125 -193.453125 C 182.832031 -191.148438 180.8125 -187.5 179.75 -182.5 C 178.695312 -177.5 178.171875 -170.097656 178.171875 -160.296875 L 178.171875 0.578125 L 171.25 0.28125 L 163.46875 0.578125 L 38.34375 -158 L 38.34375 -47.28125 C 38.34375 -35.9375 38.921875 -27.625 40.078125 -22.34375 C 41.234375 -17.0625 43.734375 -13.21875 47.578125 -10.8125 C 51.421875 -8.40625 57.664062 -6.722656 66.3125 -5.765625 L 66.3125 0 C 58.8125 -0.570312 48.429688 -0.859375 35.171875 -0.859375 C 24.597656 -0.859375 16.238281 -0.570312 10.09375 0 L 10.09375 -5.765625 C 16.4375 -6.722656 21.097656 -8.351562 24.078125 -10.65625 C 27.054688 -12.96875 29.070312 -16.625 30.125 -21.625 C 31.1875 -26.625 31.71875 -34.023438 31.71875 -43.828125 L 31.71875 -173.5625 C 31.71875 -180.863281 31.1875 -186.148438 30.125 -189.421875 C 29.070312 -192.691406 27.054688 -194.898438 24.078125 -196.046875 C 21.097656 -197.203125 16.4375 -197.972656 10.09375 -198.359375 L 10.09375 -204.125 C 16.238281 -203.550781 24.597656 -203.265625 35.171875 -203.265625 C 44.785156 -203.265625 53.050781 -203.550781 59.96875 -204.125 L 171.546875 -66.59375 L 171.546875 -156.84375 C 171.546875 -168.1875 170.96875 -176.5 169.8125 -181.78125 C 168.664062 -187.0625 166.164062 -190.90625 162.3125 -193.3125 C 158.46875 -195.71875 152.222656 -197.398438 143.578125 -198.359375 L 143.578125 -204.125 C 151.078125 -203.550781 161.457031 -203.265625 174.71875 -203.265625 C 185.476562 -203.265625 193.835938 -203.550781 199.796875 -204.125 Z M 199.796875 -198.359375 "/></g></g></g><g fill="#000000" fill-opacity="1"><g transform="translate(289.320529, 364.115216)"><g><path d="M 185.09375 -204.125 C 183.75 -185.863281 183.078125 -169.523438 183.078125 -155.109375 C 183.078125 -146.078125 183.363281 -138.773438 183.9375 -133.203125 L 177.3125 -133.203125 C 172.695312 -156.835938 166.398438 -173.460938 158.421875 -183.078125 C 150.453125 -192.691406 139.546875 -197.5 125.703125 -197.5 L 119.078125 -197.5 L 119.078125 -32.875 C 119.078125 -24.800781 119.890625 -18.9375 121.515625 -15.28125 C 123.148438 -11.625 126.035156 -9.171875 130.171875 -7.921875 C 134.304688 -6.671875 140.890625 -5.953125 149.921875 -5.765625 L 149.921875 0 C 125.703125 -0.570312 107.441406 -0.859375 95.140625 -0.859375 C 83.035156 -0.859375 65.445312 -0.570312 42.375 0 L 42.375 -5.765625 C 51.414062 -5.953125 58 -6.671875 62.125 -7.921875 C 66.257812 -9.171875 69.144531 -11.625 70.78125 -15.28125 C 72.414062 -18.9375 73.234375 -24.800781 73.234375 -32.875 L 73.234375 -197.5 L 66.890625 -197.5 C 57.660156 -197.5 49.828125 -195.476562 43.390625 -191.4375 C 36.953125 -187.40625 31.425781 -180.726562 26.8125 -171.40625 C 22.195312 -162.082031 18.257812 -149.347656 15 -133.203125 L 8.359375 -133.203125 C 8.929688 -138.773438 9.21875 -146.078125 9.21875 -155.109375 C 9.21875 -169.523438 8.546875 -185.863281 7.203125 -204.125 C 24.691406 -203.550781 54.390625 -203.265625 96.296875 -203.265625 C 138.203125 -203.265625 167.800781 -203.550781 185.09375 -204.125 Z M 185.09375 -204.125 "/></g></g></g><g fill="#000000" fill-opacity="1"><g transform="translate(618.066959, 251.545499)"><g><path d="M 48.90625 -50.21875 C 47.207031 -50.125 45.941406 -49.867188 45.109375 -49.453125 C 44.285156 -49.046875 43.726562 -48.363281 43.4375 -47.40625 C 43.144531 -46.457031 43 -45.0625 43 -43.21875 L 43 0.359375 L 41.3125 0.359375 L 10.65625 -47.015625 L 10.65625 -8.46875 C 10.65625 -6.570312 10.8125 -5.160156 11.125 -4.234375 C 11.445312 -3.304688 12.066406 -2.632812 12.984375 -2.21875 C 13.910156 -1.8125 15.347656 -1.554688 17.296875 -1.453125 L 17.296875 0 C 15.546875 -0.144531 13.066406 -0.21875 9.859375 -0.21875 C 6.929688 -0.21875 4.664062 -0.144531 3.0625 0 L 3.0625 -1.453125 C 4.769531 -1.554688 6.035156 -1.8125 6.859375 -2.21875 C 7.691406 -2.632812 8.253906 -3.316406 8.546875 -4.265625 C 8.835938 -5.210938 8.984375 -6.613281 8.984375 -8.46875 L 8.984375 -43.953125 C 8.984375 -45.796875 8.835938 -47.128906 8.546875 -47.953125 C 8.253906 -48.785156 7.703125 -49.347656 6.890625 -49.640625 C 6.085938 -49.929688 4.8125 -50.125 3.0625 -50.21875 L 3.0625 -51.6875 C 4.664062 -51.539062 6.929688 -51.46875 9.859375 -51.46875 C 12.046875 -51.46875 13.941406 -51.539062 15.546875 -51.6875 L 41.3125 -11.96875 L 41.3125 -43.21875 C 41.3125 -45.113281 41.15625 -46.523438 40.84375 -47.453125 C 40.53125 -48.378906 39.910156 -49.046875 38.984375 -49.453125 C 38.054688 -49.867188 36.617188 -50.125 34.671875 -50.21875 L 34.671875 -51.6875 C 36.421875 -51.539062 38.90625 -51.46875 42.125 -51.46875 C 45.039062 -51.46875 47.300781 -51.539062 48.90625 -51.6875 Z M 48.90625 -50.21875 "/></g></g></g><g fill="#000000" fill-opacity="1"><g transform="translate(669.572825, 251.545499)"><g><path d="M 21.6875 -50.21875 C 19.925781 -50.125 18.644531 -49.929688 17.84375 -49.640625 C 17.039062 -49.347656 16.492188 -48.785156 16.203125 -47.953125 C 15.910156 -47.128906 15.765625 -45.796875 15.765625 -43.953125 L 15.765625 -7.734375 C 15.765625 -5.890625 15.910156 -4.550781 16.203125 -3.71875 C 16.492188 -2.894531 17.039062 -2.335938 17.84375 -2.046875 C 18.644531 -1.753906 19.925781 -1.554688 21.6875 -1.453125 L 21.6875 0 C 19.445312 -0.144531 16.351562 -0.21875 12.40625 -0.21875 C 8.21875 -0.21875 5.101562 -0.144531 3.0625 0 L 3.0625 -1.453125 C 4.8125 -1.554688 6.085938 -1.753906 6.890625 -2.046875 C 7.703125 -2.335938 8.253906 -2.894531 8.546875 -3.71875 C 8.835938 -4.550781 8.984375 -5.890625 8.984375 -7.734375 L 8.984375 -43.953125 C 8.984375 -45.796875 8.835938 -47.128906 8.546875 -47.953125 C 8.253906 -48.785156 7.703125 -49.347656 6.890625 -49.640625 C 6.085938 -49.929688 4.8125 -50.125 3.0625 -50.21875 L 3.0625 -51.6875 C 5.101562 -51.539062 8.21875 -51.46875 12.40625 -51.46875 C 16.300781 -51.46875 19.394531 -51.539062 21.6875 -51.6875 Z M 21.6875 -50.21875 "/></g></g></g><g fill="#000000" fill-opacity="1"><g transform="translate(694.30439, 251.545499)"><g><path d="M 27.078125 -52.703125 C 30.003906 -52.703125 32.488281 -52.285156 34.53125 -51.453125 C 36.570312 -50.628906 38.566406 -49.46875 40.515625 -47.96875 C 41.046875 -47.519531 41.507812 -47.296875 41.90625 -47.296875 C 42.875 -47.296875 43.503906 -48.757812 43.796875 -51.6875 L 45.484375 -51.6875 C 45.285156 -48.519531 45.1875 -42.921875 45.1875 -34.890625 L 43.515625 -34.890625 C 42.972656 -38.054688 42.484375 -40.332031 42.046875 -41.71875 C 41.609375 -43.101562 40.878906 -44.429688 39.859375 -45.703125 C 38.398438 -47.597656 36.535156 -49.019531 34.265625 -49.96875 C 32.003906 -50.914062 29.5625 -51.390625 26.9375 -51.390625 C 23.769531 -51.390625 21.003906 -50.34375 18.640625 -48.25 C 16.285156 -46.15625 14.453125 -43.171875 13.140625 -39.296875 C 11.828125 -35.429688 11.171875 -30.898438 11.171875 -25.703125 C 11.171875 -20.390625 11.875 -15.832031 13.28125 -12.03125 C 14.695312 -8.238281 16.65625 -5.359375 19.15625 -3.390625 C 21.664062 -1.421875 24.503906 -0.4375 27.671875 -0.4375 C 30.097656 -0.4375 32.453125 -0.898438 34.734375 -1.828125 C 37.023438 -2.753906 38.832031 -4.140625 40.15625 -5.984375 C 41.125 -7.347656 41.828125 -8.804688 42.265625 -10.359375 C 42.703125 -11.921875 43.117188 -14.304688 43.515625 -17.515625 L 45.1875 -17.515625 C 45.1875 -9.148438 45.285156 -3.3125 45.484375 0 L 43.796875 0 C 43.648438 -1.5625 43.441406 -2.671875 43.171875 -3.328125 C 42.910156 -3.984375 42.535156 -4.3125 42.046875 -4.3125 C 41.660156 -4.3125 41.148438 -4.113281 40.515625 -3.71875 C 38.328125 -2.164062 36.234375 -0.988281 34.234375 -0.1875 C 32.242188 0.613281 29.835938 1.015625 27.015625 1.015625 C 22.390625 1.015625 18.335938 -0.0234375 14.859375 -2.109375 C 11.378906 -4.203125 8.675781 -7.234375 6.75 -11.203125 C 4.832031 -15.171875 3.875 -19.90625 3.875 -25.40625 C 3.875 -30.757812 4.859375 -35.503906 6.828125 -39.640625 C 8.796875 -43.773438 11.539062 -46.984375 15.0625 -49.265625 C 18.59375 -51.554688 22.597656 -52.703125 27.078125 -52.703125 Z M 27.078125 -52.703125 "/></g></g></g><g fill="#000000" fill-opacity="1"><g transform="translate(744.497055, 251.545499)"><g><path d="M 52.1875 -50.21875 C 50.4375 -50.125 49.160156 -49.929688 48.359375 -49.640625 C 47.554688 -49.347656 47.007812 -48.785156 46.71875 -47.953125 C 46.425781 -47.128906 46.28125 -45.796875 46.28125 -43.953125 L 46.28125 -7.734375 C 46.28125 -5.890625 46.425781 -4.550781 46.71875 -3.71875 C 47.007812 -2.894531 47.554688 -2.335938 48.359375 -2.046875 C 49.160156 -1.753906 50.4375 -1.554688 52.1875 -1.453125 L 52.1875 0 C 50.144531 -0.144531 47.03125 -0.21875 42.84375 -0.21875 C 38.90625 -0.21875 35.816406 -0.144531 33.578125 0 L 33.578125 -1.453125 C 35.328125 -1.554688 36.601562 -1.753906 37.40625 -2.046875 C 38.207031 -2.335938 38.753906 -2.894531 39.046875 -3.71875 C 39.347656 -4.550781 39.5 -5.890625 39.5 -7.734375 L 39.5 -25.265625 L 15.765625 -25.265625 L 15.765625 -7.734375 C 15.765625 -5.890625 15.910156 -4.550781 16.203125 -3.71875 C 16.492188 -2.894531 17.039062 -2.335938 17.84375 -2.046875 C 18.644531 -1.753906 19.925781 -1.554688 21.6875 -1.453125 L 21.6875 0 C 19.445312 -0.144531 16.351562 -0.21875 12.40625 -0.21875 C 8.21875 -0.21875 5.101562 -0.144531 3.0625 0 L 3.0625 -1.453125 C 4.8125 -1.554688 6.085938 -1.753906 6.890625 -2.046875 C 7.703125 -2.335938 8.253906 -2.894531 8.546875 -3.71875 C 8.835938 -4.550781 8.984375 -5.890625 8.984375 -7.734375 L 8.984375 -43.953125 C 8.984375 -45.796875 8.835938 -47.128906 8.546875 -47.953125 C 8.253906 -48.785156 7.703125 -49.347656 6.890625 -49.640625 C 6.085938 -49.929688 4.8125 -50.125 3.0625 -50.21875 L 3.0625 -51.6875 C 5.101562 -51.539062 8.21875 -51.46875 12.40625 -51.46875 C 16.300781 -51.46875 19.394531 -51.539062 21.6875 -51.6875 L 21.6875 -50.21875 C 19.925781 -50.125 18.644531 -49.929688 17.84375 -49.640625 C 17.039062 -49.347656 16.492188 -48.785156 16.203125 -47.953125 C 15.910156 -47.128906 15.765625 -45.796875 15.765625 -43.953125 L 15.765625 -26.71875 L 39.5 -26.71875 L 39.5 -43.953125 C 39.5 -45.796875 39.347656 -47.128906 39.046875 -47.953125 C 38.753906 -48.785156 38.207031 -49.347656 37.40625 -49.640625 C 36.601562 -49.929688 35.328125 -50.125 33.578125 -50.21875 L 33.578125 -51.6875 C 35.816406 -51.539062 38.90625 -51.46875 42.84375 -51.46875 C 47.03125 -51.46875 50.144531 -51.539062 52.1875 -51.6875 Z M 52.1875 -50.21875 "/></g></g></g><g fill="#000000" fill-opacity="1"><g transform="translate(799.723575, 251.545499)"><g><path d="M 27.078125 -52.703125 C 31.703125 -52.703125 35.753906 -51.65625 39.234375 -49.5625 C 42.710938 -47.46875 45.410156 -44.4375 47.328125 -40.46875 C 49.253906 -36.507812 50.21875 -31.78125 50.21875 -26.28125 C 50.21875 -20.925781 49.234375 -16.179688 47.265625 -12.046875 C 45.296875 -7.910156 42.546875 -4.695312 39.015625 -2.40625 C 35.484375 -0.125 31.484375 1.015625 27.015625 1.015625 C 22.390625 1.015625 18.335938 -0.0234375 14.859375 -2.109375 C 11.378906 -4.203125 8.675781 -7.234375 6.75 -11.203125 C 4.832031 -15.171875 3.875 -19.90625 3.875 -25.40625 C 3.875 -30.757812 4.859375 -35.503906 6.828125 -39.640625 C 8.796875 -43.773438 11.539062 -46.984375 15.0625 -49.265625 C 18.59375 -51.554688 22.597656 -52.703125 27.078125 -52.703125 Z M 26.796875 -51.390625 C 23.679688 -51.390625 20.941406 -50.304688 18.578125 -48.140625 C 16.210938 -45.972656 14.382812 -42.941406 13.09375 -39.046875 C 11.8125 -35.160156 11.171875 -30.710938 11.171875 -25.703125 C 11.171875 -20.640625 11.882812 -16.179688 13.3125 -12.328125 C 14.75 -8.484375 16.6875 -5.515625 19.125 -3.421875 C 21.5625 -1.335938 24.285156 -0.296875 27.296875 -0.296875 C 30.410156 -0.296875 33.148438 -1.375 35.515625 -3.53125 C 37.878906 -5.695312 39.703125 -8.726562 40.984375 -12.625 C 42.273438 -16.519531 42.921875 -20.972656 42.921875 -25.984375 C 42.921875 -31.046875 42.203125 -35.5 40.765625 -39.34375 C 39.328125 -43.1875 37.390625 -46.15625 34.953125 -48.25 C 32.523438 -50.34375 29.804688 -51.390625 26.796875 -51.390625 Z M 26.796875 -51.390625 "/></g></g></g><g fill="#000000" fill-opacity="1"><g transform="translate(853.782858, 251.545499)"><g><path d="M 21.6875 -50.21875 C 19.925781 -50.125 18.644531 -49.929688 17.84375 -49.640625 C 17.039062 -49.347656 16.492188 -48.785156 16.203125 -47.953125 C 15.910156 -47.128906 15.765625 -45.796875 15.765625 -43.953125 L 15.765625 -7.734375 C 15.765625 -5.890625 15.910156 -4.550781 16.203125 -3.71875 C 16.492188 -2.894531 17.039062 -2.347656 17.84375 -2.078125 C 18.644531 -1.804688 19.925781 -1.671875 21.6875 -1.671875 L 27.015625 -1.671875 C 30.023438 -1.671875 32.320312 -2.097656 33.90625 -2.953125 C 35.488281 -3.804688 36.644531 -5.179688 37.375 -7.078125 C 38.101562 -8.972656 38.640625 -11.722656 38.984375 -15.328125 L 40.65625 -15.328125 C 40.507812 -13.816406 40.4375 -11.820312 40.4375 -9.34375 C 40.4375 -6.570312 40.609375 -3.457031 40.953125 0 C 37.640625 -0.144531 32.066406 -0.21875 24.234375 -0.21875 C 14.890625 -0.21875 7.832031 -0.144531 3.0625 0 L 3.0625 -1.453125 C 4.8125 -1.554688 6.085938 -1.753906 6.890625 -2.046875 C 7.703125 -2.335938 8.253906 -2.894531 8.546875 -3.71875 C 8.835938 -4.550781 8.984375 -5.890625 8.984375 -7.734375 L 8.984375 -43.953125 C 8.984375 -45.796875 8.835938 -47.128906 8.546875 -47.953125 C 8.253906 -48.785156 7.703125 -49.347656 6.890625 -49.640625 C 6.085938 -49.929688 4.8125 -50.125 3.0625 -50.21875 L 3.0625 -51.6875 C 5.101562 -51.539062 8.21875 -51.46875 12.40625 -51.46875 C 16.300781 -51.46875 19.394531 -51.539062 21.6875 -51.6875 Z M 21.6875 -50.21875 "/></g></g></g><g fill="#000000" fill-opacity="1"><g transform="translate(896.680085, 251.545499)"><g><path d="M 41.390625 -6.125 C 42.554688 -3.113281 44.234375 -1.554688 46.421875 -1.453125 L 46.421875 0 C 44.484375 -0.144531 41.878906 -0.21875 38.609375 -0.21875 C 34.429688 -0.21875 31.316406 -0.144531 29.265625 0 L 29.265625 -1.453125 C 31.117188 -1.554688 32.445312 -1.789062 33.25 -2.15625 C 34.050781 -2.519531 34.453125 -3.1875 34.453125 -4.15625 C 34.453125 -4.988281 34.160156 -6.132812 33.578125 -7.59375 L 29.125 -19.5625 L 11.46875 -19.5625 L 8.46875 -11.828125 C 7.5 -9.203125 7.015625 -7.207031 7.015625 -5.84375 C 7.015625 -4.332031 7.535156 -3.234375 8.578125 -2.546875 C 9.617188 -1.867188 11.210938 -1.503906 13.359375 -1.453125 L 13.359375 0 C 10.585938 -0.144531 7.789062 -0.21875 4.96875 -0.21875 C 2.769531 -0.21875 0.941406 -0.144531 -0.515625 0 L -0.515625 -1.453125 C 1.921875 -2.046875 3.84375 -4.164062 5.25 -7.8125 L 22.40625 -52.046875 L 23.578125 -52.046875 Z M 28.546875 -21.03125 L 20.359375 -42.84375 L 12.046875 -21.03125 Z M 28.546875 -21.03125 "/></g></g></g><g fill="#000000" fill-opacity="1"><g transform="translate(942.641414, 251.545499)"><g><path d="M 18.6875 -52.484375 C 20.832031 -52.484375 22.523438 -52.25 23.765625 -51.78125 C 25.003906 -51.320312 26.28125 -50.65625 27.59375 -49.78125 C 28.664062 -49.101562 29.492188 -48.765625 30.078125 -48.765625 C 30.515625 -48.765625 30.851562 -49.019531 31.09375 -49.53125 C 31.34375 -50.039062 31.539062 -50.851562 31.6875 -51.96875 L 33.359375 -51.96875 C 33.117188 -49.144531 33 -44.179688 33 -37.078125 L 31.3125 -37.078125 C 31.019531 -41.023438 29.890625 -44.347656 27.921875 -47.046875 C 25.953125 -49.742188 23.09375 -51.09375 19.34375 -51.09375 C 16.71875 -51.09375 14.578125 -50.300781 12.921875 -48.71875 C 11.265625 -47.144531 10.4375 -45.113281 10.4375 -42.625 C 10.4375 -40.78125 10.863281 -39.175781 11.71875 -37.8125 C 12.570312 -36.445312 13.65625 -35.273438 14.96875 -34.296875 C 16.28125 -33.328125 18.15625 -32.09375 20.59375 -30.59375 L 22.703125 -29.265625 C 25.765625 -27.367188 28.179688 -25.703125 29.953125 -24.265625 C 31.734375 -22.835938 33.160156 -21.195312 34.234375 -19.34375 C 35.304688 -17.5 35.84375 -15.332031 35.84375 -12.84375 C 35.84375 -8.414062 34.378906 -5 31.453125 -2.59375 C 28.535156 -0.1875 24.835938 1.015625 20.359375 1.015625 C 18.023438 1.015625 16.113281 0.769531 14.625 0.28125 C 13.144531 -0.195312 11.722656 -0.847656 10.359375 -1.671875 C 9.296875 -2.359375 8.472656 -2.703125 7.890625 -2.703125 C 7.453125 -2.703125 7.109375 -2.445312 6.859375 -1.9375 C 6.617188 -1.425781 6.425781 -0.609375 6.28125 0.515625 L 4.59375 0.515625 C 4.789062 -2.160156 4.890625 -8.003906 4.890625 -17.015625 L 6.5625 -17.015625 C 6.90625 -12.097656 8.125 -8.101562 10.21875 -5.03125 C 12.3125 -1.96875 15.523438 -0.4375 19.859375 -0.4375 C 22.484375 -0.4375 24.71875 -1.25 26.5625 -2.875 C 28.414062 -4.507812 29.34375 -6.929688 29.34375 -10.140625 C 29.34375 -12.867188 28.429688 -15.179688 26.609375 -17.078125 C 24.785156 -18.972656 21.898438 -21.113281 17.953125 -23.5 C 15.085938 -25.257812 12.765625 -26.816406 10.984375 -28.171875 C 9.210938 -29.535156 7.765625 -31.175781 6.640625 -33.09375 C 5.523438 -35.019531 4.96875 -37.273438 4.96875 -39.859375 C 4.96875 -43.941406 6.28125 -47.066406 8.90625 -49.234375 C 11.53125 -51.398438 14.789062 -52.484375 18.6875 -52.484375 Z M 18.6875 -52.484375 "/></g></g></g><g fill="#000000" fill-opacity="1"><g transform="translate(982.036839, 251.545499)"><g/></g></g><g fill="#000000" fill-opacity="1"><g transform="translate(1000.2025, 251.545499)"><g><path d="M 43.21875 -51.6875 C 42.875 -48.226562 42.703125 -45.113281 42.703125 -42.34375 C 42.703125 -39.90625 42.773438 -37.910156 42.921875 -36.359375 L 41.25 -36.359375 C 40.851562 -40.097656 40.363281 -42.878906 39.78125 -44.703125 C 39.195312 -46.535156 38.175781 -47.875 36.71875 -48.71875 C 35.257812 -49.570312 33.019531 -50 30 -50 L 26.0625 -50 L 26.0625 -8.46875 C 26.0625 -6.425781 26.253906 -4.941406 26.640625 -4.015625 C 27.035156 -3.085938 27.71875 -2.453125 28.6875 -2.109375 C 29.664062 -1.773438 31.25 -1.554688 33.4375 -1.453125 L 33.4375 0 C 30.90625 -0.144531 27.328125 -0.21875 22.703125 -0.21875 C 17.835938 -0.21875 14.238281 -0.144531 11.90625 0 L 11.90625 -1.453125 C 14.09375 -1.554688 15.671875 -1.773438 16.640625 -2.109375 C 17.617188 -2.453125 18.300781 -3.085938 18.6875 -4.015625 C 19.070312 -4.941406 19.265625 -6.425781 19.265625 -8.46875 L 19.265625 -50 L 15.328125 -50 C 12.304688 -50 10.066406 -49.570312 8.609375 -48.71875 C 7.148438 -47.875 6.128906 -46.535156 5.546875 -44.703125 C 4.960938 -42.878906 4.476562 -40.097656 4.09375 -36.359375 L 2.40625 -36.359375 C 2.550781 -37.910156 2.625 -39.90625 2.625 -42.34375 C 2.625 -45.113281 2.453125 -48.226562 2.109375 -51.6875 C 6.148438 -51.539062 13.015625 -51.46875 22.703125 -51.46875 C 32.335938 -51.46875 39.175781 -51.539062 43.21875 -51.6875 Z M 43.21875 -51.6875 "/></g></g></g><g fill="#000000" fill-opacity="1"><g transform="translate(1045.507229, 251.545499)"><g><path d="M 27.078125 -52.703125 C 31.703125 -52.703125 35.753906 -51.65625 39.234375 -49.5625 C 42.710938 -47.46875 45.410156 -44.4375 47.328125 -40.46875 C 49.253906 -36.507812 50.21875 -31.78125 50.21875 -26.28125 C 50.21875 -20.925781 49.234375 -16.179688 47.265625 -12.046875 C 45.296875 -7.910156 42.546875 -4.695312 39.015625 -2.40625 C 35.484375 -0.125 31.484375 1.015625 27.015625 1.015625 C 22.390625 1.015625 18.335938 -0.0234375 14.859375 -2.109375 C 11.378906 -4.203125 8.675781 -7.234375 6.75 -11.203125 C 4.832031 -15.171875 3.875 -19.90625 3.875 -25.40625 C 3.875 -30.757812 4.859375 -35.503906 6.828125 -39.640625 C 8.796875 -43.773438 11.539062 -46.984375 15.0625 -49.265625 C 18.59375 -51.554688 22.597656 -52.703125 27.078125 -52.703125 Z M 26.796875 -51.390625 C 23.679688 -51.390625 20.941406 -50.304688 18.578125 -48.140625 C 16.210938 -45.972656 14.382812 -42.941406 13.09375 -39.046875 C 11.8125 -35.160156 11.171875 -30.710938 11.171875 -25.703125 C 11.171875 -20.640625 11.882812 -16.179688 13.3125 -12.328125 C 14.75 -8.484375 16.6875 -5.515625 19.125 -3.421875 C 21.5625 -1.335938 24.285156 -0.296875 27.296875 -0.296875 C 30.410156 -0.296875 33.148438 -1.375 35.515625 -3.53125 C 37.878906 -5.695312 39.703125 -8.726562 40.984375 -12.625 C 42.273438 -16.519531 42.921875 -20.972656 42.921875 -25.984375 C 42.921875 -31.046875 42.203125 -35.5 40.765625 -39.34375 C 39.328125 -43.1875 37.390625 -46.15625 34.953125 -48.25 C 32.523438 -50.34375 29.804688 -51.390625 26.796875 -51.390625 Z M 26.796875 -51.390625 "/></g></g></g><g fill="#000000" fill-opacity="1"><g transform="translate(1099.566512, 251.545499)"><g><path d="M 60.734375 -51.46875 C 62.921875 -51.46875 64.75 -51.539062 66.21875 -51.6875 L 66.21875 -50.21875 C 63.488281 -49.59375 61.5625 -47.476562 60.4375 -43.875 L 46.640625 0.359375 L 45.484375 0.359375 L 32.78125 -37.234375 L 21.171875 0.359375 L 20 0.359375 L 4.53125 -45.546875 C 3.507812 -48.566406 1.828125 -50.125 -0.515625 -50.21875 L -0.515625 -51.6875 C 1.484375 -51.539062 4.085938 -51.46875 7.296875 -51.46875 C 10.804688 -51.46875 13.4375 -51.539062 15.1875 -51.6875 L 15.1875 -50.21875 C 13.875 -50.125 12.945312 -49.878906 12.40625 -49.484375 C 11.875 -49.097656 11.609375 -48.492188 11.609375 -47.671875 C 11.609375 -46.890625 11.875 -45.695312 12.40625 -44.09375 L 23.0625 -11.53125 L 31.96875 -39.78125 L 30 -45.546875 C 29.03125 -48.566406 27.597656 -50.125 25.703125 -50.21875 L 25.703125 -51.6875 C 27.453125 -51.539062 29.8125 -51.46875 32.78125 -51.46875 C 36.96875 -51.46875 40.082031 -51.539062 42.125 -51.6875 L 42.125 -50.21875 C 40.269531 -50.125 38.976562 -49.914062 38.25 -49.59375 C 37.519531 -49.28125 37.15625 -48.613281 37.15625 -47.59375 C 37.15625 -46.71875 37.398438 -45.550781 37.890625 -44.09375 L 48.40625 -11.609375 L 57.375 -39.859375 C 58.15625 -42.242188 58.546875 -44.210938 58.546875 -45.765625 C 58.546875 -47.378906 58.054688 -48.515625 57.078125 -49.171875 C 56.109375 -49.828125 54.53125 -50.175781 52.34375 -50.21875 L 52.34375 -51.6875 C 55.113281 -51.539062 57.910156 -51.46875 60.734375 -51.46875 Z M 60.734375 -51.46875 "/></g></g></g><g fill="#000000" fill-opacity="1"><g transform="translate(1165.590318, 251.545499)"><g><path d="M 48.90625 -50.21875 C 47.207031 -50.125 45.941406 -49.867188 45.109375 -49.453125 C 44.285156 -49.046875 43.726562 -48.363281 43.4375 -47.40625 C 43.144531 -46.457031 43 -45.0625 43 -43.21875 L 43 0.359375 L 41.3125 0.359375 L 10.65625 -47.015625 L 10.65625 -8.46875 C 10.65625 -6.570312 10.8125 -5.160156 11.125 -4.234375 C 11.445312 -3.304688 12.066406 -2.632812 12.984375 -2.21875 C 13.910156 -1.8125 15.347656 -1.554688 17.296875 -1.453125 L 17.296875 0 C 15.546875 -0.144531 13.066406 -0.21875 9.859375 -0.21875 C 6.929688 -0.21875 4.664062 -0.144531 3.0625 0 L 3.0625 -1.453125 C 4.769531 -1.554688 6.035156 -1.8125 6.859375 -2.21875 C 7.691406 -2.632812 8.253906 -3.316406 8.546875 -4.265625 C 8.835938 -5.210938 8.984375 -6.613281 8.984375 -8.46875 L 8.984375 -43.953125 C 8.984375 -45.796875 8.835938 -47.128906 8.546875 -47.953125 C 8.253906 -48.785156 7.703125 -49.347656 6.890625 -49.640625 C 6.085938 -49.929688 4.8125 -50.125 3.0625 -50.21875 L 3.0625 -51.6875 C 4.664062 -51.539062 6.929688 -51.46875 9.859375 -51.46875 C 12.046875 -51.46875 13.941406 -51.539062 15.546875 -51.6875 L 41.3125 -11.96875 L 41.3125 -43.21875 C 41.3125 -45.113281 41.15625 -46.523438 40.84375 -47.453125 C 40.53125 -48.378906 39.910156 -49.046875 38.984375 -49.453125 C 38.054688 -49.867188 36.617188 -50.125 34.671875 -50.21875 L 34.671875 -51.6875 C 36.421875 -51.539062 38.90625 -51.46875 42.125 -51.46875 C 45.039062 -51.46875 47.300781 -51.539062 48.90625 -51.6875 Z M 48.90625 -50.21875 "/></g></g></g><g fill="#000000" fill-opacity="1"><g transform="translate(1217.096184, 251.545499)"><g><path d="M 18.6875 -52.484375 C 20.832031 -52.484375 22.523438 -52.25 23.765625 -51.78125 C 25.003906 -51.320312 26.28125 -50.65625 27.59375 -49.78125 C 28.664062 -49.101562 29.492188 -48.765625 30.078125 -48.765625 C 30.515625 -48.765625 30.851562 -49.019531 31.09375 -49.53125 C 31.34375 -50.039062 31.539062 -50.851562 31.6875 -51.96875 L 33.359375 -51.96875 C 33.117188 -49.144531 33 -44.179688 33 -37.078125 L 31.3125 -37.078125 C 31.019531 -41.023438 29.890625 -44.347656 27.921875 -47.046875 C 25.953125 -49.742188 23.09375 -51.09375 19.34375 -51.09375 C 16.71875 -51.09375 14.578125 -50.300781 12.921875 -48.71875 C 11.265625 -47.144531 10.4375 -45.113281 10.4375 -42.625 C 10.4375 -40.78125 10.863281 -39.175781 11.71875 -37.8125 C 12.570312 -36.445312 13.65625 -35.273438 14.96875 -34.296875 C 16.28125 -33.328125 18.15625 -32.09375 20.59375 -30.59375 L 22.703125 -29.265625 C 25.765625 -27.367188 28.179688 -25.703125 29.953125 -24.265625 C 31.734375 -22.835938 33.160156 -21.195312 34.234375 -19.34375 C 35.304688 -17.5 35.84375 -15.332031 35.84375 -12.84375 C 35.84375 -8.414062 34.378906 -5 31.453125 -2.59375 C 28.535156 -0.1875 24.835938 1.015625 20.359375 1.015625 C 18.023438 1.015625 16.113281 0.769531 14.625 0.28125 C 13.144531 -0.195312 11.722656 -0.847656 10.359375 -1.671875 C 9.296875 -2.359375 8.472656 -2.703125 7.890625 -2.703125 C 7.453125 -2.703125 7.109375 -2.445312 6.859375 -1.9375 C 6.617188 -1.425781 6.425781 -0.609375 6.28125 0.515625 L 4.59375 0.515625 C 4.789062 -2.160156 4.890625 -8.003906 4.890625 -17.015625 L 6.5625 -17.015625 C 6.90625 -12.097656 8.125 -8.101562 10.21875 -5.03125 C 12.3125 -1.96875 15.523438 -0.4375 19.859375 -0.4375 C 22.484375 -0.4375 24.71875 -1.25 26.5625 -2.875 C 28.414062 -4.507812 29.34375 -6.929688 29.34375 -10.140625 C 29.34375 -12.867188 28.429688 -15.179688 26.609375 -17.078125 C 24.785156 -18.972656 21.898438 -21.113281 17.953125 -23.5 C 15.085938 -25.257812 12.765625 -26.816406 10.984375 -28.171875 C 9.210938 -29.535156 7.765625 -31.175781 6.640625 -33.09375 C 5.523438 -35.019531 4.96875 -37.273438 4.96875 -39.859375 C 4.96875 -43.941406 6.28125 -47.066406 8.90625 -49.234375 C 11.53125 -51.398438 14.789062 -52.484375 18.6875 -52.484375 Z M 18.6875 -52.484375 "/></g></g></g><g fill="#000000" fill-opacity="1"><g transform="translate(1256.491609, 251.545499)"><g><path d="M 40.4375 -9.34375 C 40.4375 -6.570312 40.609375 -3.457031 40.953125 0 C 37.640625 -0.144531 32.066406 -0.21875 24.234375 -0.21875 C 14.890625 -0.21875 7.832031 -0.144531 3.0625 0 L 3.0625 -1.453125 C 4.8125 -1.554688 6.085938 -1.753906 6.890625 -2.046875 C 7.703125 -2.335938 8.253906 -2.894531 8.546875 -3.71875 C 8.835938 -4.550781 8.984375 -5.890625 8.984375 -7.734375 L 8.984375 -43.953125 C 8.984375 -45.796875 8.835938 -47.128906 8.546875 -47.953125 C 8.253906 -48.785156 7.703125 -49.347656 6.890625 -49.640625 C 6.085938 -49.929688 4.8125 -50.125 3.0625 -50.21875 L 3.0625 -51.6875 C 7.832031 -51.539062 14.890625 -51.46875 24.234375 -51.46875 C 31.390625 -51.46875 36.476562 -51.539062 39.5 -51.6875 C 39.15625 -48.46875 38.984375 -45.59375 38.984375 -43.0625 C 38.984375 -41.164062 39.054688 -39.660156 39.203125 -38.546875 L 37.515625 -38.546875 C 37.179688 -41.703125 36.742188 -44.046875 36.203125 -45.578125 C 35.671875 -47.117188 34.769531 -48.238281 33.5 -48.9375 C 32.238281 -49.644531 30.316406 -50 27.734375 -50 L 21.6875 -50 C 19.925781 -50 18.644531 -49.863281 17.84375 -49.59375 C 17.039062 -49.332031 16.492188 -48.785156 16.203125 -47.953125 C 15.910156 -47.128906 15.765625 -45.796875 15.765625 -43.953125 L 15.765625 -26.71875 L 20.59375 -26.71875 C 22.289062 -26.71875 23.601562 -27.117188 24.53125 -27.921875 C 25.457031 -28.722656 26.078125 -29.671875 26.390625 -30.765625 C 26.703125 -31.859375 26.957031 -33.234375 27.15625 -34.890625 L 27.375 -36.359375 L 29.046875 -36.359375 C 28.898438 -34.304688 28.828125 -32.015625 28.828125 -29.484375 L 28.828125 -25.984375 C 28.828125 -23.503906 28.972656 -20.050781 29.265625 -15.625 L 27.59375 -15.625 C 27.539062 -15.96875 27.394531 -17.144531 27.15625 -19.15625 C 26.914062 -21.175781 26.242188 -22.695312 25.140625 -23.71875 C 24.046875 -24.75 22.53125 -25.265625 20.59375 -25.265625 L 15.765625 -25.265625 L 15.765625 -7.734375 C 15.765625 -5.890625 15.910156 -4.550781 16.203125 -3.71875 C 16.492188 -2.894531 17.039062 -2.347656 17.84375 -2.078125 C 18.644531 -1.804688 19.925781 -1.671875 21.6875 -1.671875 L 27.015625 -1.671875 C 30.023438 -1.671875 32.320312 -2.070312 33.90625 -2.875 C 35.488281 -3.6875 36.644531 -4.976562 37.375 -6.75 C 38.101562 -8.53125 38.640625 -11.144531 38.984375 -14.59375 L 40.65625 -14.59375 C 40.507812 -13.28125 40.4375 -11.53125 40.4375 -9.34375 Z M 40.4375 -9.34375 "/></g></g></g><g fill="#000000" fill-opacity="1"><g transform="translate(1300.920886, 251.545499)"><g><path d="M 48.90625 -50.21875 C 47.207031 -50.125 45.941406 -49.867188 45.109375 -49.453125 C 44.285156 -49.046875 43.726562 -48.363281 43.4375 -47.40625 C 43.144531 -46.457031 43 -45.0625 43 -43.21875 L 43 0.359375 L 41.3125 0.359375 L 10.65625 -47.015625 L 10.65625 -8.46875 C 10.65625 -6.570312 10.8125 -5.160156 11.125 -4.234375 C 11.445312 -3.304688 12.066406 -2.632812 12.984375 -2.21875 C 13.910156 -1.8125 15.347656 -1.554688 17.296875 -1.453125 L 17.296875 0 C 15.546875 -0.144531 13.066406 -0.21875 9.859375 -0.21875 C 6.929688 -0.21875 4.664062 -0.144531 3.0625 0 L 3.0625 -1.453125 C 4.769531 -1.554688 6.035156 -1.8125 6.859375 -2.21875 C 7.691406 -2.632812 8.253906 -3.316406 8.546875 -4.265625 C 8.835938 -5.210938 8.984375 -6.613281 8.984375 -8.46875 L 8.984375 -43.953125 C 8.984375 -45.796875 8.835938 -47.128906 8.546875 -47.953125 C 8.253906 -48.785156 7.703125 -49.347656 6.890625 -49.640625 C 6.085938 -49.929688 4.8125 -50.125 3.0625 -50.21875 L 3.0625 -51.6875 C 4.664062 -51.539062 6.929688 -51.46875 9.859375 -51.46875 C 12.046875 -51.46875 13.941406 -51.539062 15.546875 -51.6875 L 41.3125 -11.96875 L 41.3125 -43.21875 C 41.3125 -45.113281 41.15625 -46.523438 40.84375 -47.453125 C 40.53125 -48.378906 39.910156 -49.046875 38.984375 -49.453125 C 38.054688 -49.867188 36.617188 -50.125 34.671875 -50.21875 L 34.671875 -51.6875 C 36.421875 -51.539062 38.90625 -51.46875 42.125 -51.46875 C 45.039062 -51.46875 47.300781 -51.539062 48.90625 -51.6875 Z M 48.90625 -50.21875 "/></g></g></g><g fill="#000000" fill-opacity="1"><g transform="translate(1352.426752, 251.545499)"><g><path d="M 23 -51.6875 C 31.613281 -51.6875 38.0625 -49.53125 42.34375 -45.21875 C 46.625 -40.914062 48.765625 -34.648438 48.765625 -26.421875 C 48.765625 -21.117188 47.71875 -16.472656 45.625 -12.484375 C 43.53125 -8.492188 40.5 -5.414062 36.53125 -3.25 C 32.570312 -1.082031 27.84375 0 22.34375 0 L 18.109375 -0.078125 C 15.378906 -0.171875 13.382812 -0.21875 12.125 -0.21875 C 8.125 -0.21875 5.101562 -0.144531 3.0625 0 L 3.0625 -1.453125 C 4.8125 -1.554688 6.085938 -1.753906 6.890625 -2.046875 C 7.703125 -2.335938 8.253906 -2.894531 8.546875 -3.71875 C 8.835938 -4.550781 8.984375 -5.890625 8.984375 -7.734375 L 8.984375 -43.953125 C 8.984375 -45.796875 8.835938 -47.128906 8.546875 -47.953125 C 8.253906 -48.785156 7.703125 -49.347656 6.890625 -49.640625 C 6.085938 -49.929688 4.8125 -50.125 3.0625 -50.21875 L 3.0625 -51.6875 C 4.769531 -51.539062 7.128906 -51.46875 10.140625 -51.46875 L 16.359375 -51.53125 C 19.660156 -51.632812 21.875 -51.6875 23 -51.6875 Z M 21.171875 -50.375 C 19.660156 -50.375 18.523438 -50.203125 17.765625 -49.859375 C 17.015625 -49.515625 16.492188 -48.90625 16.203125 -48.03125 C 15.910156 -47.15625 15.765625 -45.84375 15.765625 -44.09375 L 15.765625 -7.59375 C 15.765625 -5.84375 15.910156 -4.53125 16.203125 -3.65625 C 16.492188 -2.78125 17.015625 -2.171875 17.765625 -1.828125 C 18.523438 -1.484375 19.6875 -1.3125 21.25 -1.3125 C 26.40625 -1.3125 30.46875 -2.25 33.4375 -4.125 C 36.40625 -6 38.484375 -8.734375 39.671875 -12.328125 C 40.867188 -15.929688 41.46875 -20.535156 41.46875 -26.140625 C 41.46875 -31.734375 40.804688 -36.289062 39.484375 -39.8125 C 38.171875 -43.34375 36.039062 -45.984375 33.09375 -47.734375 C 30.15625 -49.492188 26.179688 -50.375 21.171875 -50.375 Z M 21.171875 -50.375 "/></g></g></g><g fill="#000000" fill-opacity="1"><g transform="translate(692.026924, 327.468567)"><g><path d="M 25.359375 0 L 21.578125 0 L 16.390625 -17.046875 L 11.15625 0 L 7.34375 0 L 0.09375 -21.859375 L 4.0625 -21.859375 L 9.375 -4.09375 L 14.65625 -21.828125 L 18.265625 -21.859375 L 23.578125 -4.09375 L 28.859375 -21.859375 L 32.671875 -21.859375 Z M 25.359375 0 "/></g></g></g><g fill="#000000" fill-opacity="1"><g transform="translate(743.130777, 327.468567)"><g><path d="M 18.484375 -18.546875 L 6.5625 -18.546875 L 6.5625 -12.65625 L 17.234375 -12.65625 L 17.234375 -9.34375 L 6.5625 -9.34375 L 6.5625 -3.3125 L 18.859375 -3.3125 L 18.859375 0 L 2.875 0 L 2.875 -21.859375 L 18.484375 -21.859375 Z M 18.484375 -18.546875 "/></g></g></g><g fill="#000000" fill-opacity="1"><g transform="translate(782.36452, 327.468567)"><g><path d="M 2.875 -21.859375 L 12.375 -21.859375 C 14.632812 -21.859375 16.421875 -21.375 17.734375 -20.40625 C 19.046875 -19.4375 19.703125 -18.097656 19.703125 -16.390625 C 19.703125 -15.171875 19.359375 -14.128906 18.671875 -13.265625 C 17.984375 -12.398438 17.046875 -11.820312 15.859375 -11.53125 C 17.316406 -11.28125 18.460938 -10.664062 19.296875 -9.6875 C 20.128906 -8.707031 20.546875 -7.476562 20.546875 -6 C 20.546875 -4.125 19.835938 -2.65625 18.421875 -1.59375 C 17.003906 -0.53125 15.0625 0 12.59375 0 L 2.875 0 Z M 6.5625 -18.578125 L 6.5625 -12.8125 L 12.1875 -12.8125 C 13.351562 -12.8125 14.265625 -13.070312 14.921875 -13.59375 C 15.585938 -14.113281 15.921875 -14.828125 15.921875 -15.734375 C 15.921875 -16.648438 15.59375 -17.351562 14.9375 -17.84375 C 14.289062 -18.332031 13.375 -18.578125 12.1875 -18.578125 Z M 6.5625 -9.5625 L 6.5625 -3.28125 L 12.1875 -3.28125 C 13.644531 -3.28125 14.769531 -3.554688 15.5625 -4.109375 C 16.363281 -4.660156 16.765625 -5.445312 16.765625 -6.46875 C 16.765625 -7.425781 16.359375 -8.179688 15.546875 -8.734375 C 14.742188 -9.285156 13.625 -9.5625 12.1875 -9.5625 Z M 6.5625 -9.5625 "/></g></g></g><g fill="#000000" fill-opacity="1"><g transform="translate(823.160125, 327.468567)"><g/></g></g><g fill="#000000" fill-opacity="1"><g transform="translate(849.961483, 327.468567)"><g><path d="M 2.875 -21.859375 L 11.84375 -21.859375 C 15.101562 -21.859375 17.800781 -20.828125 19.9375 -18.765625 C 22.070312 -16.703125 23.140625 -14.085938 23.140625 -10.921875 C 23.140625 -7.765625 22.066406 -5.15625 19.921875 -3.09375 C 17.773438 -1.03125 15.050781 0 11.75 0 L 2.875 0 Z M 6.5625 -18.546875 L 6.5625 -3.3125 L 11.9375 -3.3125 C 14.082031 -3.3125 15.863281 -4.023438 17.28125 -5.453125 C 18.707031 -6.878906 19.421875 -8.695312 19.421875 -10.90625 C 19.421875 -13.113281 18.6875 -14.9375 17.21875 -16.375 C 15.757812 -17.820312 13.945312 -18.546875 11.78125 -18.546875 Z M 6.5625 -18.546875 "/></g></g></g><g fill="#000000" fill-opacity="1"><g transform="translate(892.912435, 327.468567)"><g><path d="M 18.484375 -18.546875 L 6.5625 -18.546875 L 6.5625 -12.65625 L 17.234375 -12.65625 L 17.234375 -9.34375 L 6.5625 -9.34375 L 6.5625 -3.3125 L 18.859375 -3.3125 L 18.859375 0 L 2.875 0 L 2.875 -21.859375 L 18.484375 -21.859375 Z M 18.484375 -18.546875 "/></g></g></g><g fill="#000000" fill-opacity="1"><g transform="translate(932.146168, 327.468567)"><g><path d="M 12.625 0 L 8.8125 0 L 0.09375 -21.859375 L 4.0625 -21.859375 L 10.8125 -4.09375 L 17.609375 -21.859375 L 21.453125 -21.859375 Z M 12.625 0 "/></g></g></g><g fill="#000000" fill-opacity="1"><g transform="translate(972.441969, 327.468567)"><g><path d="M 18.484375 -18.546875 L 6.5625 -18.546875 L 6.5625 -12.65625 L 17.234375 -12.65625 L 17.234375 -9.34375 L 6.5625 -9.34375 L 6.5625 -3.3125 L 18.859375 -3.3125 L 18.859375 0 L 2.875 0 L 2.875 -21.859375 L 18.484375 -21.859375 Z M 18.484375 -18.546875 "/></g></g></g><g fill="#000000" fill-opacity="1"><g transform="translate(1011.675702, 327.468567)"><g><path d="M 6.5625 -3.34375 L 16.015625 -3.34375 L 16.015625 0 L 2.875 0 L 2.875 -21.859375 L 6.5625 -21.859375 Z M 6.5625 -3.34375 "/></g></g></g><g fill="#000000" fill-opacity="1"><g transform="translate(1047.098516, 327.468567)"><g><path d="M 4.40625 -18.78125 C 6.632812 -20.894531 9.378906 -21.953125 12.640625 -21.953125 C 15.910156 -21.953125 18.660156 -20.894531 20.890625 -18.78125 C 23.117188 -16.664062 24.234375 -14.046875 24.234375 -10.921875 C 24.234375 -7.804688 23.117188 -5.179688 20.890625 -3.046875 C 18.660156 -0.910156 15.910156 0.15625 12.640625 0.15625 C 9.378906 0.15625 6.632812 -0.910156 4.40625 -3.046875 C 2.175781 -5.179688 1.0625 -7.804688 1.0625 -10.921875 C 1.0625 -14.046875 2.175781 -16.664062 4.40625 -18.78125 Z M 12.6875 -18.640625 C 10.519531 -18.640625 8.664062 -17.894531 7.125 -16.40625 C 5.582031 -14.925781 4.8125 -13.101562 4.8125 -10.9375 C 4.8125 -8.769531 5.585938 -6.929688 7.140625 -5.421875 C 8.691406 -3.910156 10.535156 -3.15625 12.671875 -3.15625 C 14.816406 -3.15625 16.648438 -3.910156 18.171875 -5.421875 C 19.691406 -6.929688 20.453125 -8.769531 20.453125 -10.9375 C 20.453125 -13.101562 19.691406 -14.925781 18.171875 -16.40625 C 16.648438 -17.894531 14.820312 -18.640625 12.6875 -18.640625 Z M 12.6875 -18.640625 "/></g></g></g><g fill="#000000" fill-opacity="1"><g transform="translate(1091.142756, 327.468567)"><g><path d="M 2.875 -21.859375 L 11.59375 -21.859375 C 14.332031 -21.859375 16.457031 -21.207031 17.96875 -19.90625 C 19.476562 -18.601562 20.234375 -16.769531 20.234375 -14.40625 C 20.234375 -11.925781 19.476562 -10.003906 17.96875 -8.640625 C 16.457031 -7.273438 14.332031 -6.59375 11.59375 -6.59375 L 6.5625 -6.59375 L 6.5625 0 L 2.875 0 Z M 6.5625 -18.546875 L 6.5625 -9.90625 L 11.4375 -9.90625 C 14.945312 -9.90625 16.703125 -11.375 16.703125 -14.3125 C 16.703125 -17.132812 14.945312 -18.546875 11.4375 -18.546875 Z M 6.5625 -18.546875 "/></g></g></g><g fill="#000000" fill-opacity="1"><g transform="translate(1130.907503, 327.468567)"><g><path d="M 25.984375 0 L 22.578125 0 L 22.546875 -16.328125 L 15.640625 -2.28125 L 13.25 -2.28125 L 6.34375 -16.328125 L 6.34375 0 L 2.875 0 L 2.875 -21.859375 L 7.25 -21.859375 L 14.46875 -7.34375 L 21.640625 -21.859375 L 25.984375 -21.859375 Z M 25.984375 0 "/></g></g></g><g fill="#000000" fill-opacity="1"><g transform="translate(1178.544043, 327.468567)"><g><path d="M 18.484375 -18.546875 L 6.5625 -18.546875 L 6.5625 -12.65625 L 17.234375 -12.65625 L 17.234375 -9.34375 L 6.5625 -9.34375 L 6.5625 -3.3125 L 18.859375 -3.3125 L 18.859375 0 L 2.875 0 L 2.875 -21.859375 L 18.484375 -21.859375 Z M 18.484375 -18.546875 "/></g></g></g><g fill="#000000" fill-opacity="1"><g transform="translate(1217.777775, 327.468567)"><g><path d="M 21.828125 0 L 18.203125 0 L 6.5625 -15.671875 L 6.5625 0 L 2.875 0 L 2.875 -21.859375 L 6.5 -21.859375 L 18.203125 -6.15625 L 18.203125 -21.859375 L 21.828125 -21.859375 Z M 21.828125 0 "/></g></g></g><g fill="#000000" fill-opacity="1"><g transform="translate(1261.259781, 327.468567)"><g><path d="M 17.796875 -18.546875 L 10.875 -18.546875 L 10.875 0 L 7.1875 0 L 7.1875 -18.546875 L 0.28125 -18.546875 L 0.28125 -21.859375 L 17.796875 -21.859375 Z M 17.796875 -18.546875 "/></g></g></g></svg>